# xmcd
#
# Track frame offsets:
#	150
#	17127
#	34139
#	50079
#	63669
#	82396
#	101229
#	115369
#	124980
#	140227
#	167864
#
# Disc length: 2428 seconds
#
# Revision: 1
# Processed by: cddbd v1.5.2PL0 Copyright (c) Steve Scherf et al.
# Submitted via: audiograbber 1.83.01
#
DISCID=b1097a0b
DTITLE=Kristin Asbjørnsen - Wayfaring Stranger-a Spiritual Songboo
DYEAR=2007
DGENRE=Blues
TTITLE0=Trying to get home
TTITLE1=I`m on my way
TTITLE2=Ride up in the chariot
TTITLE3=Now we take this feeble body
TTITLE4=In that morning
TTITLE5=Come Go With Me
TTITLE6=Wish I was in heaven sitting down
TTITLE7=Going up
TTITLE8=Don`t be weary traveler
TTITLE9=I am a poor wayfaring stranger - Going over Jordan
TTITLE10=Oh glory
EXTD=Solo-Debütalbum der norwegischen Newcomerin Kristin Asbjørnsen. Die Songs 
EXTD=des Albums - eine Kollektion von afro-amerikanischen Spirituals - lernte A
EXTD=sbjørnsen von ihrer aus Chicago stammenden Gesangslehrerin Ruth Reese. Die
EXTD=in den 1960er Jahren nach Norwegen ausgewanderte Afroamerikanerin vermach
EXTD=te ihr ein persönliches, umfangreiches Songbook mit Spirituals. Die ehemal
EXTD=ige Leadsängerin der Osloer Gruppe Dadafon hat es leidenschaftlich und blu
EXTD=esig vertont.
EXTT0=
EXTT1=
EXTT2=
EXTT3=
EXTT4=
EXTT5=
EXTT6=
EXTT7=
EXTT8=
EXTT9=
EXTT10=
PLAYORDER=
